<svg xmlns="http://www.w3.org/2000/svg" viewBox="0 0 1200 760" width="100%" height="100%">
  <style>
    .bg { fill: #f8fafc; stroke: #dbe5ef; stroke-width: 1.5; rx: 18; }
    .box { fill: #ffffff; stroke: #94a3b8; stroke-width: 2; rx: 14; }
    .box-accent { fill: #eef4ff; stroke: #5b8def; stroke-width: 2; rx: 14; }
    .box-side { fill: #f6f9fc; stroke: #cbd5e1; stroke-width: 1.5; rx: 12; }
    .text-title { font-family: 'Segoe UI', Arial, sans-serif; font-size: 20px; font-weight: 700; fill: #1e293b; text-anchor: middle; }
    .text-body { font-family: 'Segoe UI', Arial, sans-serif; font-size: 13px; fill: #475569; text-anchor: middle; }
    .text-small { font-family: 'Segoe UI', Arial, sans-serif; font-size: 12px; fill: #64748b; text-anchor: middle; }
    .line { stroke: #64748b; stroke-width: 2.5; fill: none; }
    .line-soft { stroke: #94a3b8; stroke-width: 2; fill: none; stroke-dasharray: 6 6; }
    .marker { fill: #64748b; }
    .marker-soft { fill: #94a3b8; }
  </style>
  <defs>
    <marker id="arrow" viewBox="0 0 10 10" refX="8" refY="5" markerWidth="6" markerHeight="6" orient="auto-start-reverse">
      <path d="M 0 0 L 10 5 L 0 10 z" class="marker"/>
    </marker>
    <marker id="arrow-soft" viewBox="0 0 10 10" refX="8" refY="5" markerWidth="6" markerHeight="6" orient="auto-start-reverse">
      <path d="M 0 0 L 10 5 L 0 10 z" class="marker-soft"/>
    </marker>
  </defs>

  <rect x="60" y="70" width="810" height="560" class="bg"/>
  <text x="465" y="100" class="text-small">Active Staged Runtime</text>

  <rect x="920" y="70" width="220" height="560" class="bg"/>
  <text x="1030" y="100" class="text-small">Persistence</text>

  <rect x="365" y="30" width="200" height="54" class="box-accent"/>
  <text x="465" y="63" class="text-title">A2A Request</text>

  <rect x="365" y="130" width="200" height="58" class="box"/>
  <text x="465" y="164" class="text-title">Intake</text>
  <text x="465" y="184" class="text-body">Normalize input + extract answer contract</text>

  <rect x="365" y="225" width="200" height="58" class="box"/>
  <text x="465" y="258" class="text-title">Task Profiler</text>
  <text x="465" y="278" class="text-body">Choose task profile + capability flags</text>

  <rect x="365" y="320" width="200" height="72" class="box"/>
  <text x="465" y="354" class="text-title">Context Builder</text>
  <text x="465" y="376" class="text-body">Assemble evidence pack</text>
  <text x="465" y="394" class="text-small">facts, formulas, tables, files, signals</text>

  <rect x="170" y="470" width="220" height="86" class="box"/>
  <text x="280" y="504" class="text-title">Solver</text>
  <text x="280" y="526" class="text-body">PLAN / GATHER / COMPUTE /</text>
  <text x="280" y="544" class="text-body">SYNTHESIZE / REVISE / COMPLETE</text>

  <rect x="465" y="470" width="220" height="86" class="box"/>
  <text x="575" y="504" class="text-title">Tool Runner</text>
  <text x="575" y="526" class="text-body">Execute one tool call</text>
  <text x="575" y="544" class="text-body">Return normalized ToolResult</text>

  <rect x="170" y="590" width="220" height="86" class="box"/>
  <text x="280" y="624" class="text-title">Reviewer</text>
  <text x="280" y="646" class="text-body">Milestone + final review only</text>
  <text x="280" y="664" class="text-small">pass / revise / backtrack</text>

  <rect x="465" y="590" width="220" height="86" class="box"/>
  <text x="575" y="624" class="text-title">Output Adapter</text>
  <text x="575" y="646" class="text-body">Apply exact JSON / XML wrapping</text>
  <text x="575" y="664" class="text-small">No substantive answer changes</text>

  <rect x="710" y="590" width="140" height="86" class="box-accent"/>
  <text x="780" y="624" class="text-title">Reflect</text>
  <text x="780" y="646" class="text-body">Finalize run</text>
  <text x="780" y="664" class="text-body">Persist memory</text>

  <rect x="95" y="210" width="200" height="110" class="box-side"/>
  <text x="195" y="238" class="text-title">Runtime Artifacts</text>
  <text x="195" y="262" class="text-small">task_profile</text>
  <text x="195" y="280" class="text-small">capability_flags</text>
  <text x="195" y="298" class="text-small">answer_contract</text>
  <text x="195" y="316" class="text-small">evidence_pack</text>

  <rect x="620" y="210" width="200" height="110" class="box-side"/>
  <text x="720" y="238" class="text-title">Tool Contract</text>
  <text x="720" y="262" class="text-small">type</text>
  <text x="720" y="280" class="text-small">facts</text>
  <text x="720" y="298" class="text-small">assumptions</text>
  <text x="720" y="316" class="text-small">source / errors</text>

  <rect x="955" y="155" width="150" height="86" class="box-side"/>
  <text x="1030" y="188" class="text-title">SQLite Memory</text>
  <text x="1030" y="210" class="text-body">Versioned schema</text>
  <text x="1030" y="228" class="text-small">auto-reset on mismatch</text>

  <rect x="955" y="300" width="150" height="176" class="box-side"/>
  <text x="1030" y="332" class="text-title">Stored Records</text>
  <text x="1030" y="360" class="text-small">run_memory</text>
  <text x="1030" y="382" class="text-small">tool_memory</text>
  <text x="1030" y="404" class="text-small">review_memory</text>
  <text x="1030" y="440" class="text-small">store-only in v1</text>

  <line x1="465" y1="84" x2="465" y2="128" class="line" marker-end="url(#arrow)"/>
  <line x1="465" y1="188" x2="465" y2="223" class="line" marker-end="url(#arrow)"/>
  <line x1="465" y1="283" x2="465" y2="318" class="line" marker-end="url(#arrow)"/>
  <line x1="465" y1="392" x2="465" y2="432" class="line" marker-end="url(#arrow)"/>

  <path d="M 465 432 C 465 455 350 455 280 468" class="line" marker-end="url(#arrow)"/>
  <path d="M 390 513 C 425 513 430 513 463 513" class="line" marker-end="url(#arrow)"/>
  <path d="M 575 556 C 575 575 405 575 290 590" class="line" marker-end="url(#arrow)"/>
  <path d="M 390 633 C 425 633 430 633 463 633" class="line" marker-end="url(#arrow)"/>
  <line x1="685" y1="633" x2="708" y2="633" class="line" marker-end="url(#arrow)"/>

  <path d="M 280 590 C 280 570 280 560 280 558" class="line-soft" marker-end="url(#arrow-soft)"/>
  <text x="215" y="572" class="text-small">revise / backtrack</text>

  <path d="M 780 590 C 780 510 940 510 1030 478" class="line-soft" marker-end="url(#arrow-soft)"/>
  <path d="M 1030 240 C 1030 265 1030 275 1030 298" class="line-soft" marker-end="url(#arrow-soft)"/>
</svg>
